<svg width="90" height="184" viewBox="0 0 90 184" fill="none" xmlns="http://www.w3.org/2000/svg">
<path fill-rule="evenodd" clip-rule="evenodd" d="M45.6559 69.7223C54.6944 71.975 64.7373 66.3366 72.3681 62.1912C76.1681 60.1251 76.8216 57.7384 79.2117 56.4408C81.2246 61.4117 81.2159 63.7391 85.5597 73.591C88.2941 79.7937 89.9716 85.6715 86.9302 92.7196C83.4284 100.841 70.5371 113.754 59.0097 109.89C57.5011 108.719 59.2509 110.63 58.0164 108.072C57.056 106.08 56.7052 107.365 58.9637 104.868C54.565 104.93 56.9859 105.61 56.2381 103.3C57.9463 101.226 57.6634 100.24 59.8869 98.2658C62.9436 95.5541 69.9692 93.4968 69.4977 85.5749C69.2697 81.7391 68.3005 82.4571 68.022 82.2814C66.8007 84.6308 69.114 87.8101 66.6954 91.2177C64.2526 94.6583 56.5253 97.0318 55.0014 103.131C54.4839 105.204 54.3392 106.974 55.2404 108.768L57.624 112.371C60.9613 111.321 62.9721 114.652 70.4603 110.959C73.5149 109.453 79.6261 104.102 80.6655 104.047C85.2418 115.721 69.6117 176.097 59.9307 177.691C59.6413 172.881 62.2265 167.424 57.431 164.203C49.0371 158.567 38.036 162.552 32.4445 167.978C28.1708 172.123 32.098 176.925 31.9599 182.074C26.4473 180.497 24.8378 172.918 22.9695 167.471C20.9522 161.582 19.187 155.153 17.4789 148.682C14.2445 136.431 9.83707 123.397 9.78883 108.506C11.622 109.439 23.1077 124.574 39.1565 116.376C41.3054 115.278 41.2879 114.733 41.6694 112.628C44.6867 95.9142 30.8218 100.505 25.4583 93.51C22.8138 90.0606 24.8772 86.4663 23.6537 84.2926C20.2615 86.0228 21.8775 93.3717 28.0896 97.8223C32.8326 101.219 38.3781 100.584 39.8384 107.02C39.8911 109.63 38.5228 103.316 39.5665 111.279L38.8232 111.44C37.7092 111.956 38.7925 110.695 38.036 111.883C37.3584 112.946 38.0755 111.936 38.0272 114.566C33.0935 113.888 36.933 113.569 35.3915 116.753C19.7264 117.386 7.51057 106.359 3.34652 94.8581C-2.45334 78.832 5.65546 62.1604 16.7355 57.3036C16.389 55.3583 15.9483 55.0333 15.3058 53.6786C11.6899 46.0421 13.3258 45.6074 13.3302 41.1985C13.3433 26.0331 13.6854 26.8609 17.5622 14.2139C18.2726 11.8975 15.2905 1.25079 24.6908 2.68894C29.0259 3.35423 27.6357 4.97242 30.2999 7.43814C31.1551 7.67967 44.3292 5.7409 48.6117 5.72773C51.9622 5.71675 55.5474 5.50377 58.819 5.98462C65.5135 6.96827 63.8974 6.69821 66.6822 4.40814C68.3948 2.99853 72.6992 1.78873 74.3657 4.30055C76.7163 7.84873 72.9886 9.1288 74.0653 12.1939C74.7209 14.0602 77.9421 16.179 79.5362 27.5306C79.8651 29.8777 80.216 34.7235 80.1918 36.9939C80.1765 38.3793 79.9243 39.745 79.7401 41.1524C79.2007 45.2978 80.2949 44.7379 79.8015 46.2771C79.2073 48.128 79.8234 45.1529 79.0625 47.6757C78.0341 51.0878 80.0186 47.107 78.5231 50.2271C76.5168 54.4076 79.1569 48.4771 77.8478 51.5993C74.0784 60.584 64.0816 66.0028 54.6725 68.0755L46.1975 69.4324C46.0527 69.4873 45.8159 69.5927 45.6602 69.7245L45.6559 69.7223ZM14.4945 56.3156C10.2318 60.0614 7.24305 61.9321 4.21265 67.4937C-1.66395 78.27 -1.40304 90.7413 5.06342 101.428C11.0124 111.257 7.01938 103.643 9.19021 119.5C10.4883 128.981 19.0225 161.004 22.6143 171.328C24.2238 175.959 26.9538 183.782 32.6659 183.33C37.8957 176.121 24.1295 170.261 43.2767 163.516C48.0503 161.834 52.9358 162.842 56.3061 165.334C61.5249 169.192 56.6767 173.151 58.7664 178.859C63.1059 180.394 65.5924 174.611 67.4738 171.087C75.1003 156.802 76.9597 147.78 80.045 130.937C81.6106 122.394 82.6193 102.484 83.9919 100.218C86.5553 95.9889 88.8401 96.1426 89.8488 88.7323C91.3311 77.8462 81.4461 60.843 80.6742 54.7962C80.1304 50.5235 82.2969 52.2405 82.5995 48.0929C82.7881 45.4954 81.7027 43.7652 81.6128 40.4937C81.5316 37.6152 81.5316 34.875 81.3759 32.0141C80.1787 10.0444 77.1856 17.5316 76.0804 10.9995C75.5958 8.13197 79.2994 0.0168333 69.4956 1.58014C65.4938 2.21907 65.6495 3.79336 63.4304 4.54647C61.7442 5.11953 46.4672 2.7614 39.2245 4.00853C36.7993 4.42571 34.4399 5.46206 32.2054 5.53232C31.8546 5.16784 25.7039 -4.85313 18.1125 2.99194C15.661 5.52353 16.3298 7.77188 16.457 11.5155C16.5052 12.9822 14.6896 17.738 14.1568 19.8743C12.3456 27.1639 12.589 31.9878 11.429 39.363C9.88311 49.1951 12.0671 48.139 14.4967 56.3178L14.4945 56.3156Z" fill="white"/>
<path fill-rule="evenodd" clip-rule="evenodd" d="M48.9199 47.7204L49.0822 53.6399C53.9305 54.1932 53.6937 53.4401 56.2724 51.1807L55.5926 47.391C52.8977 46.0824 51.4395 45.3952 48.9199 47.7182V47.7204Z" fill="white"/>
<path fill-rule="evenodd" clip-rule="evenodd" d="M44.8001 33.2395C47.4227 32.5128 48.063 27.8251 44.4602 26.6504C43.6642 27.8646 43.4647 27.9305 43.5151 30.1217C43.5963 33.6567 43.6357 32.2142 44.7979 33.2395H44.8001Z" fill="white"/>
<path fill-rule="evenodd" clip-rule="evenodd" d="M20.1643 8.89736L21.3024 10.8076C24.8174 10.6539 24.2868 9.40456 24.3218 6.29112L26.3962 8.00153L25.7844 5.09668C23.7561 5.5402 21.7936 6.89272 20.4691 8.40114C20.3836 8.49775 20.2586 8.7283 20.1621 8.89736H20.1643Z" fill="white"/>
<path fill-rule="evenodd" clip-rule="evenodd" d="M52.1186 58.5843C50.9937 56.213 52.7107 57.4316 49.1628 57.605C47.7287 57.6753 46.8867 57.6006 45.4219 56.8761C41.6438 55.0098 43.3914 53.6529 40.2207 52.0303C41.3566 58.0332 45.2355 58.5755 52.1208 58.5821L52.1186 58.5843Z" fill="white"/>
<path fill-rule="evenodd" clip-rule="evenodd" d="M57.8663 31.5279L58.1514 25.9092C55.7613 26.3791 55.3907 25.9751 55.1232 28.9304C54.8622 31.8045 55.6253 31.3478 57.8663 31.5279Z" fill="white"/>
<path fill-rule="evenodd" clip-rule="evenodd" d="M67.1253 7.8733L71.2786 8.42002L69.6493 4.56445C68.5945 6.10361 68.5967 5.02774 67.9476 5.51298C67.8862 5.55909 67.6911 5.61837 67.6385 5.67984C66.7394 6.73376 67.1845 7.05652 67.1253 7.8755V7.8733Z" fill="white"/>
<path fill-rule="evenodd" clip-rule="evenodd" d="M70.8057 44.7087H72.8887L72.8821 43.3232C68.0649 43.7097 71.8012 43.6153 70.8057 44.7087Z" fill="white"/>
<path fill-rule="evenodd" clip-rule="evenodd" d="M17.2222 41.8097C17.2792 41.8449 16.2091 44.192 19.2373 41.8097C16.6981 39.8315 17.6081 41.6033 17.2222 41.8097Z" fill="white"/>
<path fill-rule="evenodd" clip-rule="evenodd" d="M71.8428 8.75321C73.9173 7.62465 72.9984 9.06499 73.5379 6.47852C72.1213 7.37654 72.3055 6.44558 71.8428 8.75321Z" fill="white"/>
</svg>
