<svg width="90" height="184" viewBox="0 0 90 184" fill="none" xmlns="http://www.w3.org/2000/svg">
<path fill-rule="evenodd" clip-rule="evenodd" d="M42.9313 153.603C41.3814 154.968 41.194 154.942 41.0003 157.802C47.2775 159.307 43.1444 162.48 42.8689 164.162C42.5266 166.251 42.8064 163.92 43.7234 166.664C38.4924 166.798 32.3206 164.489 26.8075 165.429C24.6139 165.804 24.1296 166.908 21.5872 166.339C18.1278 151.303 38.0942 138.843 39.8917 142.872C41.3146 146.054 34.116 148.289 42.6493 151.669L42.9334 153.603H42.9313ZM23.9854 148.261C22.8896 141.583 18.793 133.441 28.0669 131.904C30.2669 135.566 30.1055 136.476 30.1098 140.764C30.112 143.926 26.3684 146.951 23.9876 148.261H23.9854ZM41.4867 56.2862C42.0077 53.4536 43.3123 55.4024 43.6309 55.6007C42.3608 56.3185 43.5103 55.8572 41.4867 56.2862ZM42.9313 153.605C43.8742 152.663 43.7213 155.11 43.7213 152.353C42.7117 150.443 41.1122 149.934 39.6376 148.945C39.6527 142.24 42.1498 142.525 48.483 142.234C53.3696 142.012 56.7925 143.267 60.9127 144.655C69.037 147.39 80.315 147.5 80.4743 137.353C77.8007 138.75 78.8985 142.312 73.8698 144.407C69.8378 146.088 66.9122 144.668 63.5519 143.376C56.0734 140.501 49.0363 140.783 39.6398 140.766C40.1091 137.442 42.8452 135.426 41.6806 133.421C38.1351 137.086 39.797 141.734 32.1549 142.13C32.1549 138.451 32.5768 134.062 30.8159 131.854C28.5577 129.024 24.4051 130.912 22.6937 132.663C17.5294 137.94 23.7313 145.411 21.824 150.191C17.4261 147.457 11.2608 128.612 11.0714 119.608C10.869 110.013 16.5241 112.569 22.4246 110.595C29.4424 108.247 29.4295 105.846 29.4295 97.1475C25.9572 97.7015 27.9312 98.9669 27.0852 102.996C25.5912 110.125 20.5755 108.471 17.7059 108.98C14.4898 109.549 17.4756 109.661 13.6653 110.657C12.9851 110.836 13.2369 110.759 12.4146 110.776C18.0095 86.6514 9.87232 92.0622 5.68963 80.6995C2.14845 71.0808 0.686718 55.1394 1.65974 44.7122C2.10104 39.9783 3.02243 24.6298 4.92757 21.5708C6.71861 22.1766 5.63361 21.5299 6.60232 23.2285C8.11351 25.8779 9.59675 30.974 14.2164 38.0705C17.086 42.4746 22.3385 49.3492 26.0261 52.1602C24.8766 53.9042 23.6258 54.5638 24.6634 56.9351C27.4813 56.6268 26.4416 56.8467 27.8688 54.2081C44.2078 59.0175 32.3895 57.668 51.8907 57.612C51.5226 64.0403 49.1654 64.0014 58.2778 74.3617C67.8939 85.2954 89.6706 124.747 87.0809 140.563C84.8206 154.364 77.8674 162.353 65.5992 166.77C57.6105 169.648 53.9358 168.531 45.0602 167.348L45.0818 158.488C43.463 157.401 44.3735 157.664 42.2488 157.1L42.9291 153.607L42.9313 153.605ZM25.3803 48.6917C21.7035 45.4667 8.14585 25.6817 7.18359 19.9109C6.68201 16.9016 7.47848 14 4.24728 14C1.80612 14 1.52625 16.1212 1.53055 18.085C1.53486 20.4994 2.81579 19.4259 2.68017 22.6918L0.734119 38.4392C-0.393894 50.3386 -0.824488 70.7014 4.01477 81.6997C5.75846 85.6619 6.34834 85.7934 9.00476 88.9472C14.7159 95.7269 10.2748 108.575 9.69577 116.228C8.40846 133.236 20.5862 152.239 20.5862 153.032C20.5862 154.832 19.2279 155.308 19.2279 157.802C19.2257 161.275 19.1418 166.572 21.6024 169.051C24.4116 168.076 24.164 166.658 27.3888 166.66C44.2595 166.251 50.7908 174.138 68.5312 166.994C84.0629 160.738 90.0064 148.85 90 132.587C89.9978 122.662 77.454 98.7017 73.0948 91.5966C69.4847 85.7137 65.4033 80.8698 61.0635 75.0343C60.0215 73.6331 59.1971 72.2707 57.8387 70.7445C49.3894 61.2486 54.4847 63.6501 54.6182 55.6654L45 56.228L46.1172 53.1734C41.7817 52.4081 37.9177 59.69 25.3782 48.6917H25.3803Z" fill="white"/>
<path fill-rule="evenodd" clip-rule="evenodd" d="M8.97778 73.9794L11.4125 77.3937C13.2854 76.7794 12.0734 77.0294 13.2703 76.2103C14.6846 75.2403 15.8513 73.753 16.4606 77.3894C20.6928 76.9497 17.3044 76.3052 20.5464 74.0182C23.7863 78.7194 9.7506 83.2115 8.97778 73.9794ZM7.60647 74.6605C7.61939 78.5405 12.7708 80.862 14.9989 80.7197C16.7727 80.6055 22.598 78.6633 22.5894 73.8824C18.5531 71.5436 19.0891 73.9707 15.1001 73.9729C12.1659 73.975 7.59356 70.9207 7.60647 74.6605Z" fill="white"/>
<path fill-rule="evenodd" clip-rule="evenodd" d="M28.5216 62.0756C31.0294 62.1252 31.4234 61.4246 31.404 58.3595C29.8391 58.4198 29.5011 57.965 28.5368 58.9565C27.3119 60.2175 28.2418 61.3449 28.5216 62.0756Z" fill="white"/>
<path fill-rule="evenodd" clip-rule="evenodd" d="M47.0898 61.0232L49.1845 61.0211L49.2383 59.6631H47.0921L47.0898 61.0232Z" fill="white"/>
<path fill-rule="evenodd" clip-rule="evenodd" d="M48.443 62.4342C48.4064 63.443 49.9069 63.6607 49.6033 62.4342C49.2266 60.9145 51.6528 62.4256 49.2675 62.2316C48.6496 62.182 48.4926 61.0611 48.443 62.4342Z" fill="white"/>
</svg>
