<svg width="90" height="184" viewBox="0 0 90 184" fill="none" xmlns="http://www.w3.org/2000/svg">
<path fill-rule="evenodd" clip-rule="evenodd" d="M38.5665 148.499C38.7332 146.52 38.5746 146.193 40.5063 145.868C43.3001 145.397 43.5156 146.04 44.3615 147.221C42.7714 147.352 39.7031 147.96 38.5665 148.499ZM61.0716 147.171C59.5832 144.731 62.2631 143.792 66.8625 142.739C67.2407 144.309 67.1655 143.786 67.3872 145.298C65.8093 145.941 64.4327 145.789 62.3607 145.3C62.0903 148.417 63.0155 146.674 61.0716 147.171ZM36.1061 141.574C43.8572 142.566 43.8227 141.105 45.793 143.386C42.2184 144.133 40.6811 145.363 37.6474 143.618C35.0061 142.099 36.6104 142.57 36.1061 141.574ZM58.4994 143.386C56.7609 143.386 56.7263 143.079 55.2847 142.743L55.2826 141.465C61.9926 141.463 63.6254 138.918 68.7962 138.25C67.1268 141.497 62.6291 143.386 58.4994 143.386ZM13.5035 125.507C1.89106 119.454 1.83406 111.485 4.49164 99.9564C6.61242 101.477 5.24202 99.7302 6.09399 102.853C6.4539 104.176 6.72635 105.595 6.94595 106.474C8.10903 111.127 8.9711 115.423 10.9394 119.747C11.834 121.71 12.9606 123.181 13.5035 125.509V125.507ZM8.99558 38.0229C9.23958 35.1226 9.64016 33.5937 9.66049 29.7179H10.9273C11.1225 32.0446 14.628 36.5344 8.99558 38.0229ZM1.92156 63.5617C1.9175 49.5997 8.67829 37.2715 21.5636 31.984C44.4875 22.5784 54.6624 34.8217 57.2143 34.8217C59.9207 34.8217 60.0915 30.9701 64.2904 30.1724C61.6897 42.7368 63.9976 39.9597 68.0521 50.8963C71.6592 60.6271 71.2078 76.6978 69.6665 87.4061C69.0281 91.8413 69.4327 96.6987 69.4327 101.241C66.4722 99.2919 65.37 94.4851 61.7181 96.0988C67.1655 102.392 71.893 101.93 69.6726 119.41C69.1155 123.795 71.0654 124.582 71.3623 128.058C67.4868 128.731 64.8576 128.282 61.9499 126.544C60.1179 125.445 56.7954 122.698 55.248 121.054C51.6063 117.186 48.8471 110.891 48.8492 103.794C46.0431 104.099 46.5149 103.289 48.7149 112.23C51.3908 123.098 62.4949 134.705 75.2074 128.05C74.3636 125.984 72.6372 127.263 71.6592 123.264C71.0898 120.935 71.3501 118.342 71.3501 115.916H72.6454C72.7735 117.433 74.0484 121.85 74.5751 122.94C77.2204 122.324 76.0776 121.838 78.4587 122.332C82.0435 123.08 79.9552 121.757 84.2151 121.662C81.9865 124.082 81.4965 122.31 81.0044 125.493C83.0886 125.011 85.1077 123.805 87.4298 122.94C87.0293 125.055 88.3713 123.235 85.9292 125.275C82.3078 128.299 74.1216 132.538 70.2826 134.651C62.4501 138.963 52.7044 140.831 43.0683 140.831C27.1676 140.829 16.6186 128.89 11.8931 115.56C9.20705 107.983 6.9236 101.99 5.58566 93.7621C3.68041 82.058 1.92355 75.5203 1.91948 63.5597L1.92156 63.5617ZM57.8568 32.2728C55.3314 32.7939 43.5157 21.6291 25.1017 29.108C13.5482 33.7997 15.1831 36.6757 11.7874 28.185C9.89229 23.4448 14.1664 18.8763 6.42948 22.0573L7.00284 23.4004C9.8048 29.5705 8.6885 36.5061 5.79505 42.4924C-0.0487871 54.5822 1.31687e-05 59.9728 1.31687e-05 72.4988C1.31687e-05 78.4933 3.82071 87.0325 2.57833 99.9584C2.2896 102.948 1.28709 106.456 1.28505 108.896C1.28505 113.276 4.34939 120.715 6.70807 123.3C9.91466 126.812 15.0366 127.42 18.4933 130.751C31.2383 143.038 36.1935 137.783 37.2875 150.4C40.6791 152.012 41.3014 149.641 41.0899 157.372C39.3859 157.851 39.5059 158.018 37.2875 158.065C37.6921 160.63 37.0516 159.921 40.5022 159.977L40.5002 163.809C45.547 162.474 38.9751 160.49 44.9979 161.892C44.5567 156.653 42.4278 162.48 42.4258 150.396C45.5673 149.568 45.6405 148.471 45.6405 144.65C50.9414 143.545 49.8577 140.802 53.9976 143.321C57.1248 145.222 56.5819 144.163 57.9626 145.199C60.0203 146.742 58.7108 146.514 59.4855 149.122C61.8462 149.968 60.8988 149.348 63.6458 149.122C62.4258 151.743 63.3733 151.46 63.8613 154.72C64.453 158.654 63.3387 155.72 62.3607 159.337C67.7226 158.735 64.1785 157.96 68.1415 160.616C68.1659 159.575 68.0805 159.88 68.3713 158.927C69.3859 155.607 69.0911 158.937 70.0406 156.148C67.7836 154.795 64.9349 159.529 64.9247 148.481C67.1838 147.785 67.2122 147.615 68.784 146.567C68.479 141.95 68.0398 141.429 70.9597 137.876C72.7531 135.695 75.4249 134.764 77.9239 133.291C81.9215 130.936 89.573 127.311 90 122.308C84.3575 121.434 88.3285 120.454 82.7328 119.955L81.8503 119.889C81.6714 119.864 81.1671 119.739 80.9922 119.709C77.2692 119.099 79.2639 120.109 75.856 120.392C75.3579 118.281 74.6381 117.481 73.8308 115.375C67.9219 99.9302 71.9987 87.5515 71.9987 76.9684V66.7508C71.9987 47.3619 59.0809 38.4571 67.0679 28.0234C68.9589 25.5533 68.7881 27.5145 68.782 23.3539L65.3273 23.2166C64.3859 25.9391 64.6645 26.8076 62.4522 28.5405C60.5368 30.0391 59.3981 31.2488 57.8568 32.2688V32.2728Z" fill="white"/>
<path fill-rule="evenodd" clip-rule="evenodd" d="M7.11475 67.4498C5.65073 60.0799 9.14611 51.4902 11.8362 47.261C25.2868 26.1129 54.374 37.8937 54.1117 59.7729C53.9775 70.8994 53.4833 81.3836 44.4166 87.9152C38.955 91.8496 11.8932 97.8117 7.7187 70.0168C7.41776 68.0213 7.29571 68.3546 7.11475 67.4498ZM31.5272 92.9866C49.9636 92.9745 55.9518 78.043 55.9518 61.0635C55.9518 42.1613 36.5292 28.0983 19.9676 37.4494C-1.4416 49.5352 3.92038 86.2611 19.5467 90.8559C21.9115 91.5527 29.2112 92.9866 31.5293 92.9866H31.5272Z" fill="white"/>
<path fill-rule="evenodd" clip-rule="evenodd" d="M27.0587 77.8778C26.7964 77.3588 26.1763 76.6903 26.8513 74.8826C27.4573 73.2568 27.2052 73.9031 28.3317 73.0851C27.9718 74.6221 27.563 76.454 27.0587 77.8778ZM23.1872 78.8372C22.0953 77.3467 22.8701 74.3292 23.4212 70.7685C25.1048 70.6494 24.8953 70.8271 26.402 71.1705C25.674 74.2848 23.9172 75.7269 23.1872 78.8372ZM19.9746 84.5812H21.8981L25.5521 79.7784C25.6212 80.461 25.4179 80.4105 25.7595 82.0263H27.0405C27.9168 78.3161 29.4724 74.6443 30.2552 71.0755C28.8217 70.4717 28.049 70.7201 26.7518 70.1748C24.021 69.0256 25.8978 67.9874 22.5448 67.9834C21.888 70.0112 21.5525 74.0041 21.2617 76.2863C20.9161 79.0068 20.1454 81.9031 19.9746 84.5812Z" fill="white"/>
<path fill-rule="evenodd" clip-rule="evenodd" d="M36.7031 59.7367C39.9607 59.7125 40.4772 59.7953 41.193 57.1919C40.4122 56.7557 40.5037 56.5537 39.2694 56.5537C37.1708 56.5537 36.8617 57.8443 36.7031 59.7367Z" fill="white"/>
<path fill-rule="evenodd" clip-rule="evenodd" d="M10.8931 57.8262C9.01023 57.8262 9.1159 61.5989 12.1577 61.0072C15.0024 60.4538 13.4307 57.8262 10.8931 57.8262Z" fill="white"/>
<path fill-rule="evenodd" clip-rule="evenodd" d="M16.7295 55.8897H17.9904L18.0047 50.79H16.7295V55.8897Z" fill="white"/>
<path fill-rule="evenodd" clip-rule="evenodd" d="M31.4924 54.6133C34.4979 53.7933 32.9362 54.375 32.7695 50.7921L31.4883 50.79L31.4904 54.6133H31.4924Z" fill="white"/>
<path fill-rule="evenodd" clip-rule="evenodd" d="M21.3682 110.118C22.4967 108.126 21.7911 108.534 21.2869 106.369C19.5748 107.615 20.0181 107.977 21.3682 110.118Z" fill="white"/>
<path fill-rule="evenodd" clip-rule="evenodd" d="M25.1198 109.508C25.9373 107.539 25.374 109.356 25.1198 106.303C23.5988 106.919 23.9893 105.002 23.912 107.494C23.8774 108.621 24.8982 109.268 25.1198 109.508Z" fill="white"/>
<path fill-rule="evenodd" clip-rule="evenodd" d="M28.9183 108.152C28.9203 108.146 29.99 108.408 29.5182 106.288C29.0058 103.981 29.9209 105.762 28.2432 105.001C28.3001 107.445 28.0439 106.542 28.9163 108.152H28.9183Z" fill="white"/>
<path fill-rule="evenodd" clip-rule="evenodd" d="M25.8113 121.645C25.7178 120.35 26.0838 120.485 25.4454 119.415C24.7257 118.209 25.3315 118.914 24.1055 118.676C25.2583 121.495 23.3898 119.922 25.8113 121.647V121.645Z" fill="white"/>
<path fill-rule="evenodd" clip-rule="evenodd" d="M34.1887 131.141L31.4883 128.735C31.8096 131.201 31.4517 131.064 34.1887 131.141Z" fill="white"/>
<path fill-rule="evenodd" clip-rule="evenodd" d="M34.834 128.803C35.9442 130.489 34.7995 130.101 37.1073 130.419C35.7815 127.743 37.9714 128.908 34.834 128.803Z" fill="white"/>
<path fill-rule="evenodd" clip-rule="evenodd" d="M39.161 130.014C39.0166 126.467 39.5839 128.238 37.886 127.467C38.2744 130.464 37.0727 128.477 39.161 130.014Z" fill="white"/>
<path fill-rule="evenodd" clip-rule="evenodd" d="M27.6523 121.024H28.9234C28.5756 119.031 28.901 119.683 27.6523 118.479V121.024Z" fill="white"/>
<path fill-rule="evenodd" clip-rule="evenodd" d="M30.8975 120.438C32.7887 119.045 32.7887 119.287 30.8975 117.894V120.438Z" fill="white"/>
</svg>
