<svg width="90" height="184" viewBox="0 0 90 184" fill="none" xmlns="http://www.w3.org/2000/svg">
<path fill-rule="evenodd" clip-rule="evenodd" d="M21.8494 133.093C24.5062 132.153 24.6803 133.648 23.4496 135.113C23.1213 134.368 23.3021 134.555 23.5307 133.52C21.8016 134.091 22.7134 134.276 21.8508 133.093H21.8494ZM20.2107 126.327C19.5914 127.509 20.6693 126.857 18.8751 127.244C19.5608 126.154 18.8803 126.694 20.2107 126.327ZM87.079 120.147C91.7572 120.125 89.8407 132.202 75.2637 126.291C73.609 125.62 73.7008 125.823 73.5373 124.259C75.5295 124.79 74.5766 125.414 77.8912 126.632C79.6349 127.272 81.9023 127.505 83.973 127.129C85.524 126.847 87.2796 125.89 87.9813 124.395C89.2838 121.616 87.7528 121.285 87.3036 120.64C87.2677 120.589 87.2039 120.443 87.176 120.401C87.1494 120.358 87.1295 120.223 87.079 120.147ZM32.0472 114.054C32.006 112.067 32.4579 112.452 34.4315 112.507C33.6394 113.96 33.8427 113.787 32.0472 114.054ZM31.9395 112.059C29.1299 107.251 36.3825 101.719 39.9191 102.729C39.6294 103.758 39.7942 103.364 39.0646 104.043L35.4588 106.748C32.9749 109.331 35.5213 111.487 31.9382 112.059H31.9395ZM0.858521 98.5958C1.30774 89.7779 12.4172 91.6144 12.0783 98.9551C11.6636 107.963 0.482401 105.978 0.858521 98.5958ZM19.7522 59.4663C22.0555 58.4815 20.1682 58.2979 26.6965 56.7342C37.1707 54.2257 33.4839 58.6732 38.4598 51.2753C39.1562 50.2386 40.3338 47.7473 41.0621 46.9622C44.9469 51.7876 41.2588 53.3074 49.2743 56.4175C59.8694 60.5283 68.8259 75.4332 73.5347 85.1374C76.0186 90.257 79.0369 95.4764 79.0063 103.216C78.9718 111.904 78.1292 114.203 74.1075 121.883C67.2536 134.972 48.522 139.797 37.8498 134.306C36.3347 133.527 35.205 132.137 34.3425 131.93C32.0485 131.375 27.2228 134.157 24.7973 134.356L24.3174 132.693C25.5548 130.975 29.7878 130.113 32.3595 129.311C30.5015 125.139 28.2076 125.036 24.0145 126.006L21.7059 126.46C20.1283 126.507 20.9949 125.913 21.0507 125.811C21.2381 125.469 21.3896 125.338 21.7577 125.067C23.8497 123.522 26.6327 123.419 29.4184 123.422C29.3745 119.696 27.7331 113.841 30.6769 111.64C31.4146 113.262 30.4749 114.279 32.0804 114.806C33.6155 115.311 34.7053 114.097 34.8794 112.91C35.5678 108.228 34.0793 109.153 37.6279 105.979C40.3219 103.57 42.9839 102.959 44.075 98.1034C45.9703 89.6728 36.9447 96.6581 34.5006 98.2191C31.2896 100.269 28.7047 101.324 23.956 101.611C24.0264 101.534 24.1474 101.321 24.1832 101.396L28.8774 98.0621C39.45 88.8024 32.9124 83.6057 38.2432 82.1884C37.2531 81.5203 36.154 82.2775 33.1982 82.187C33.5304 83.237 33.1902 82.541 33.8799 83.1998C34.2335 83.5365 33.8002 83.1519 34.3544 83.5604L34.8794 83.8705C35.2794 97.1292 20.1762 104.028 11.77 104.065C12.0916 101.293 14.2925 99.5499 12.3056 95.9648C11.2171 94.0018 8.91917 91.6011 6.27172 91.4414C6.59866 89.5716 7.63003 89.3587 9.0973 86.6811C13.5097 78.6245 14.3855 70.6836 10.8569 61.6275C9.22219 57.4315 4.70476 55.0028 14.1689 57.0709C16.1465 57.5034 18.281 58.1795 19.7522 59.4677V59.4663ZM9.66876 55.6762L7.17148 55.6975C7.0532 58.3791 8.07389 56.826 10.1126 61.9443C14.1317 72.0331 10.4529 86.6372 3.44354 92.3716C-2.33515 97.0999 -0.761586 105.746 7.56753 105.75C9.63951 105.751 17.2722 103.987 19.0345 103.337C27.8846 100.07 24.2257 105.425 39.5044 96.0712C44.8073 92.8241 43.6498 98.2843 41.1671 102.366C37.6385 100.938 32.5363 103.601 30.859 108.039C30.1227 109.986 29.0276 112.436 28.5146 114.097C27.8248 116.331 28.1571 119.525 28.1558 122.158C24.8092 122.999 22.2136 123.697 19.3402 125.55C18.0643 126.372 17.7839 126.463 18.2597 128.285C20.4008 128.167 28.7246 123.769 30.9242 128.563C28.8788 130.282 23.4749 131.305 20.971 133.099L22.8276 135.913C39.5709 131.21 31.4172 132.379 39.4074 135.7C51.6838 140.802 68.8551 132.445 72.5551 125.946C78.2169 127.763 76.828 128.89 83.626 128.891C88.2073 128.893 91.914 124.383 88.9196 119.803L86.1473 119.588C85.3379 121.206 84.1962 122.766 86.9912 123.001C87.3421 122.096 87.1002 122.787 86.5699 121.319C89.6254 122.173 86.8144 126.256 82.7954 126.409C79.1073 126.55 76.1489 125.125 74.5394 123.262C77.5178 113.598 79.8463 118.381 79.8463 101.963C79.8463 89.7739 64.4626 61.8165 50.1222 55.5578C48.7546 54.9616 46.8142 54.5836 45.933 53.8757C43.8318 52.1922 42.2702 46.5044 42.0283 46C39.9271 46.0639 39.8287 47.1538 38.9117 48.7814C36.3028 53.4152 36.3094 54.1804 33.0945 54.7141L23.4815 56.8806C22.0103 57.3424 20.5284 58.2021 19.1807 57.9213C16.29 57.3184 13.2811 55.6696 9.67006 55.6762H9.66876Z" fill="white"/>
<path fill-rule="evenodd" clip-rule="evenodd" d="M38.6473 114.582C38.969 112.98 38.3111 113.591 39.8847 113.345C39.4075 115.128 39.8156 114.235 38.6473 114.582ZM40.6569 115.933C40.4509 115.309 40.4017 115.123 40.3432 114.15C42.7289 114.191 45.7564 115.161 49.8406 113.564C51.9989 112.72 51.6321 112.634 52.1092 111.841C42.0856 116.312 43.6326 113.158 38.6606 112.465C38.2141 113.321 37.9788 113.781 37.8193 114.992C38.7563 115.355 39.5392 115.724 40.6582 115.934L40.6569 115.933Z" fill="white"/>
<path fill-rule="evenodd" clip-rule="evenodd" d="M39.1125 53.9733C39.4248 53.3292 39.6388 52.7823 40.1386 52.0969C40.8815 51.0802 40.4283 51.3956 41.6045 51.0562C42.3793 53.111 41.3719 53.9787 39.1125 53.9733ZM37.8207 54.9927L42.6105 54.0053L42.0617 50.1846C40.0069 50.3523 39.4115 51.7682 37.8193 54.9927H37.8207Z" fill="white"/>
<path fill-rule="evenodd" clip-rule="evenodd" d="M53.3258 115.83C52.026 116.178 52.1098 116.443 50.5668 116.843C49.3387 117.161 48.3393 117.175 47.0434 117.121C44.3973 117.012 42.6589 115.91 40.6494 115.948L43.3368 117.057C45.6666 117.745 51.6818 118.268 53.3258 115.829V115.83Z" fill="white"/>
<path fill-rule="evenodd" clip-rule="evenodd" d="M15.0749 60.2117C15.9096 60.0599 15.7833 60.1983 16.3841 59.839C16.1581 59.1816 16.3588 58.7558 14.1858 58.2434C12.7518 57.9054 11.7949 57.6765 10.7569 57.9919C10.6173 59.2841 10.5203 58.6174 11.7616 59.5156V58.5761L14.3453 58.9487C14.9354 59.1923 14.9261 59.2694 15.2105 59.4584C15.1932 59.5729 15.2424 59.7299 15.0749 60.2117Z" fill="white"/>
<path fill-rule="evenodd" clip-rule="evenodd" d="M2.93187 97.7586H3.76388V99.8546L2.93057 99.8533V97.7586H2.93187ZM3.34784 100.704C4.10273 100.311 4.45226 100.536 4.51074 98.9829C4.55593 97.7852 4.03362 97.4046 3.34784 96.9082C1.51644 97.7825 1.56694 99.7601 3.34784 100.704Z" fill="white"/>
<path fill-rule="evenodd" clip-rule="evenodd" d="M6.71046 97.3798L8.02217 97.3705C7.97167 99.6409 8.42753 98.6348 7.05064 99.4665L6.71046 97.3798ZM5.91699 97.28L6.2878 99.9057L8.03282 99.8977C8.78904 98.2914 8.87945 97.8935 7.76305 96.5215L5.91829 97.28H5.91699Z" fill="white"/>
<path fill-rule="evenodd" clip-rule="evenodd" d="M24.3432 75.4617C25.6643 75.1702 25.6058 75.5881 25.6058 73.7782C25.6058 72.5033 25.1114 72.6124 23.9233 72.5166C23.7492 76.3999 23.9738 74.9134 24.3432 75.4617Z" fill="white"/>
<path fill-rule="evenodd" clip-rule="evenodd" d="M16.7639 74.5871C16.3213 73.1499 16.4489 73.0461 14.7225 72.9023C14.7225 74.1919 14.4367 74.8174 15.1398 75.4774C15.8907 76.1828 16.518 74.9411 16.7639 74.5871Z" fill="white"/>
<path fill-rule="evenodd" clip-rule="evenodd" d="M53.3193 115.831C54.558 115.566 53.9347 115.92 54.9727 114.945C56.1875 113.803 57.6215 111.928 57.9937 110.36L53.3193 115.831Z" fill="white"/>
<path fill-rule="evenodd" clip-rule="evenodd" d="M15.0531 60.2871C13.441 60.7449 13.8039 61.1215 12.1572 60.3324C12.4456 61.4382 12.1107 60.8913 12.9984 61.9333C13.4064 61.7616 13.4384 61.8841 14.0909 61.4196C14.1853 61.3531 14.4684 61.1282 14.5494 61.0457C15.0478 60.54 14.7806 60.7675 15.0518 60.2871H15.0531Z" fill="white"/>
<path fill-rule="evenodd" clip-rule="evenodd" d="M52.9336 111.443C54.1284 110.737 53.5516 111.347 54.4434 109.908C53.0785 110.571 53.537 109.864 52.9336 111.443Z" fill="white"/>
<path fill-rule="evenodd" clip-rule="evenodd" d="M18.8467 127.238C20.6409 126.852 19.563 127.503 20.1824 126.321C18.8533 126.687 19.5325 126.148 18.8467 127.238Z" fill="white"/>
</svg>
