<svg width="90" height="184" viewBox="0 0 90 184" fill="none" xmlns="http://www.w3.org/2000/svg">
<path fill-rule="evenodd" clip-rule="evenodd" d="M83.0706 113.968C86.4325 114.478 88.7098 117.483 88.9947 121.328C88.1467 122.455 87.9618 122.16 87.4221 122.861C86.4358 124.14 86.9672 124.027 86.2176 125.348L80.9515 126.596C80.6866 118.015 79.9485 116.857 83.0706 113.968ZM16.8769 94.9574C16.8752 97.6248 17.38 110.628 16.4837 111.954C14.4613 114.94 6.74953 112.236 6.38302 107.587C5.93321 101.875 12.4255 95.4245 12.1622 78.913C14.1281 79.3101 15.7007 80.3977 16.7386 81.3352L16.8769 94.9591V94.9574ZM5.3218 111.816C4.17895 108.353 2.83786 107.507 4.21062 102.834C4.97696 100.225 6.1931 98.0635 7.13437 95.2176C8.65039 90.6335 9.20683 86.6667 9.41508 81.7856C9.53336 79.0365 9.18018 78.466 10.0431 77.0514C11.2943 77.8805 10.9178 76.998 11.2826 79.4535C12.1589 85.3688 8.77868 95.5046 7.14604 100.522C5.76662 104.758 3.97571 107.952 7.34761 111.377C12.652 116.764 15.3959 112.593 17.1535 113.946C14.6712 117.416 9.23516 114.572 6.62793 112.615C5.17521 111.526 6.40468 112.278 5.32347 111.817L5.3218 111.816ZM5.3218 111.816C7.49588 118.005 16.0922 116.143 17.405 116.056C17.9465 120.402 18.6928 130.513 20.482 133.46C22.5962 134.7 21.5549 133.544 23.5291 134.172C24.5103 134.484 24.8619 134.998 25.7532 135.424C27.3825 133.849 26.4745 133.535 28.6436 132.893C29.5116 135.525 27.3558 136.613 29.9514 138.378C31.2425 138.728 36.2287 136.314 38.6644 135.747C49.7597 133.157 63.3372 136.77 73.1131 132.831C78.854 130.519 78.2409 128.567 80.3051 127.85C81.5212 127.428 83.9718 127.365 85.5828 126.808C88.6332 125.752 90.3258 121.409 89.9477 119.428C87.9252 108.808 79.8103 114.945 79.4238 115.02C76.5466 109.412 70.2027 101.9 65.5796 97.3645C61.7946 93.6512 53.0716 81.9674 51.414 80.4544C51.359 80.4044 51.2274 80.2876 51.1224 80.2209C52.207 84.2378 63.0757 96.7874 65.5846 99.4714C69.5896 103.759 78.7274 111.23 79.8236 119.463C82.6041 140.32 51.5106 131.023 36.6869 135.345C34.2562 136.054 32.2487 137.557 30.1763 137.554C28.7236 132.761 32.9701 131.345 36.8002 129.697C39.5123 128.529 48.262 127.371 49.4931 126.604L48.4386 126.254C42.9842 125.8 42.3811 129.388 35.8472 122.575C33.9947 125.109 37.0134 125.99 38.3512 126.744C38.4611 126.806 38.5994 126.883 38.7043 126.946C39.8672 127.65 39.1741 127.188 39.7022 127.658L37.0017 128.839C33.5082 130.206 30.8027 132.336 29.1201 132.282C27.669 128.497 34.7877 120.497 33.215 116.382C33.1417 116.513 33.0617 116.572 33.0351 116.795C33.0034 117.055 32.7552 117.474 32.7052 117.621C32.4203 118.465 32.5286 118.2 32.3354 118.879L29.6715 125.692C28.7036 127.817 26.5095 133.285 24.622 133.974C23.5791 130.449 23.3858 125.978 23.624 121.848C23.7906 118.967 25.3983 111.476 24.3038 109.784C22.2396 118.447 23.0843 123.696 23.1959 132.394C19.1876 132.905 19.8507 128.381 18.9544 120.28L17.425 89.1555C17.4167 75.1614 18.4846 85.0285 23.5707 84.3246C20.7186 80.6179 11.8107 80.5845 2.41137 66.1717C-0.264164 62.068 1.33349 59.0369 2.11816 55C-2.0001 57.951 0.808726 65.7713 2.81788 68.9608C7.30764 76.0872 9.10021 72.4389 8.5821 82.3094C7.92071 94.9157 3.19937 101.315 2.74957 105.086C2.48801 107.285 3.32931 110.603 5.31846 111.814L5.3218 111.816Z" fill="white"/>
<path fill-rule="evenodd" clip-rule="evenodd" d="M49.1138 76.7232C48.6973 74.94 46.7898 72.1308 45.7952 70.0522C44.5974 67.5533 43.8594 65.4782 42.9781 62.8291C41.3487 57.9364 38.0968 52.8068 33.9219 51.5674C34.6049 52.1929 37.3871 55.0005 38.1817 56.0347C39.5045 57.7546 40.4191 59.6596 41.2954 61.8916C47.4878 77.6557 46.6265 90.7608 54.6731 102.828C62.6498 114.791 48.2458 117.608 40.016 106.95C36.8873 102.898 32.4092 94.7243 30.525 89.5814C30.0885 88.3903 29.7586 87.261 29.532 85.7963L29.1205 83.1239C28.769 82.0146 28.9556 82.4717 28.5341 81.8912C26.9714 85.2392 37.4354 117.32 53.0122 114.514C64.2558 112.489 53.2904 99.1516 51.9876 96.5476C50.4182 93.4115 46.205 77.4072 46.0151 73.1917C46.9247 73.9824 46.5366 73.6138 47.3695 74.7765C47.776 75.3436 47.4279 75.01 48.0193 75.7123L49.1155 76.7215L49.1138 76.7232Z" fill="white"/>
<path fill-rule="evenodd" clip-rule="evenodd" d="M2.1748 54.8007C5.33847 52.4953 2.32641 54.065 7.69247 50.7337C8.49047 50.2382 8.95861 49.8729 9.56835 49.4976C10.5696 50.8221 9.64997 50.5619 10.6212 51.9564C12.5404 51.4944 11.6741 52.23 12.2306 49.4592C13.1901 44.6783 28.2488 47.9395 30.1097 47.8161C30.1797 48.063 30.3979 48.6001 30.5628 48.8387L31.569 50.0648C32.6569 51.3359 31.9955 50.9305 33.9181 51.6128L32.7569 49.3992C32.2488 48.2848 32.3171 48.0546 31.5557 46.8652C24.2355 45.489 13.5983 45.3355 7.13771 49.576C5.52506 50.6336 2.88617 53.2343 2.1748 54.8023V54.8007Z" fill="white"/>
<path fill-rule="evenodd" clip-rule="evenodd" d="M18.4253 56.2094C20.9658 56.0326 21.5306 53.9724 20.6027 52.1007C20.2262 51.9356 21.3723 51.0414 19.4165 52.004C18.6752 52.3693 18.7118 52.3977 18.367 53.0966C17.8056 54.236 18.1288 55.3303 18.4253 56.2094Z" fill="white"/>
<path fill-rule="evenodd" clip-rule="evenodd" d="M5.65771 63.9606C5.06462 63.0798 3.84847 62.6094 3.72352 60.9363C3.54527 58.5274 5.03798 59.7786 4.64814 56.3271C1.14795 56.4056 3.85847 56.9477 2.99216 61.2949C2.95551 61.4767 2.81224 61.5602 2.76393 61.6219L2.01758 62.541L5.65771 63.959V63.9606Z" fill="white"/>
<path fill-rule="evenodd" clip-rule="evenodd" d="M5.72266 64.0713C7.34363 65.3975 8.36654 65.3508 10.0691 65.204C8.7697 64.2348 7.69514 64.3115 5.72266 64.0713Z" fill="white"/>
<path fill-rule="evenodd" clip-rule="evenodd" d="M29.1855 121.163C31.298 122.103 30.7699 122.175 31.0681 120.142C29.4654 120.529 30.1385 119.963 29.1855 121.163Z" fill="white"/>
<path fill-rule="evenodd" clip-rule="evenodd" d="M10.0672 108.295C10.7586 107.036 10.7969 107.748 10.0839 106.427C8.26636 107.296 8.45628 107.254 10.0672 108.295Z" fill="white"/>
<path fill-rule="evenodd" clip-rule="evenodd" d="M35.4171 85.2775C35.4787 85.6895 36.7847 87.421 36.0884 85.4643C35.8852 84.8921 35.2621 84.2265 35.4171 85.2775Z" fill="white"/>
<path fill-rule="evenodd" clip-rule="evenodd" d="M50.1249 78.3697C49.7234 76.7149 50.7929 78.8819 49.8833 77.5623C49.4168 76.8851 49.4501 77.0202 49.0986 76.7383C49.5468 78.9953 49.6451 78.0394 50.1249 78.3697Z" fill="white"/>
<path fill-rule="evenodd" clip-rule="evenodd" d="M11.6354 108.445C11.4371 109.636 12.485 109.027 12.4167 108.418C12.4167 108.413 11.7536 107.733 11.6354 108.445Z" fill="white"/>
<path fill-rule="evenodd" clip-rule="evenodd" d="M68.626 111.841C68.1029 110.497 68.5844 111.134 67.4814 110.54C68.3911 113.246 67.2749 110.587 68.626 111.841Z" fill="white"/>
<path fill-rule="evenodd" clip-rule="evenodd" d="M51.1352 80.0531C50.7053 78.3532 51.71 80.4101 50.8853 79.239C50.3421 78.4683 50.4721 78.7252 50.0939 78.4316C50.4854 80.0564 49.4974 78.0546 50.3338 79.239C50.8869 80.0231 50.7237 79.7361 51.1352 80.0531Z" fill="white"/>
<path fill-rule="evenodd" clip-rule="evenodd" d="M46.9552 97.9085C47.3284 99.5984 47.7565 98.7309 47.5383 98.1471C47.5083 98.067 46.7603 97.0194 46.9552 97.9085Z" fill="white"/>
<path fill-rule="evenodd" clip-rule="evenodd" d="M66.2486 127.457C65.2458 128.421 68.1162 127.531 66.4835 127.404C66.4686 127.402 66.307 127.402 66.2486 127.457Z" fill="white"/>
</svg>
