<svg width="90" height="184" viewBox="0 0 90 184" fill="none" xmlns="http://www.w3.org/2000/svg">
<path fill-rule="evenodd" clip-rule="evenodd" d="M40.4189 150.464C40.2408 149.597 39.9738 148.713 40.1018 147.753C40.4411 145.217 39.9682 146.73 41.3275 146.03C43.2061 148.96 40.443 150.423 40.4189 150.464ZM33.7057 147.181C35.371 147.792 34.72 146.301 35.1521 148.424C35.5416 150.345 34.4215 150.409 34.249 150.596C33.1827 149.514 33.8318 151.3 33.2569 149.326C32.3704 146.279 33.4572 147.475 33.7057 147.183V147.181ZM34.4419 89.082C36.2185 87.6447 35.5119 88.6642 36.148 89.082C35.7827 89.3679 37.0808 91.3641 34.4419 89.082ZM37.8096 86.2595C38.8926 86.9279 39.8792 87.6484 37.882 88.8387C36.8583 87.9883 37.142 88.9761 37.1476 87.4256C37.1513 86.1128 37.6316 86.4841 37.8096 86.2595ZM71.5888 70.2955C72.7405 69.5676 74.0757 68.4702 75.3349 68.2084C77.0113 70.0746 82.94 86.3616 84.0583 89.7412C87.2832 99.477 88.5832 105.495 85.6365 116.425C81.5158 131.708 68.3546 146.817 50.8577 141.183L62.6948 129.286C66.4018 125.342 69.5081 120.022 70.9546 112.884C73.8457 98.6098 75.7892 94.6472 74.0924 80.3396C73.6288 76.4271 72.0321 73.5024 71.587 70.2937L71.5888 70.2955ZM38.544 32.99C41.6484 34.5294 39.2858 38.143 40.8862 43.7323C51.3621 45.2903 55.3604 46.1779 62.4519 56.7772C66.9415 63.4881 71.7909 71.2574 72.8461 81.5707C74.5634 98.3814 67.2957 126.705 55.5384 134.459C49.6152 138.366 41.4611 145.95 31.9384 145.49C10.089 144.433 1.35069 112.808 28.0254 94.5655C39.4805 86.7311 29.4293 94.3538 40.1277 89.0783L39.4063 84.2967C47.8256 78.063 51.5902 63.3117 50.1251 59.7817C48.5173 60.556 49.5503 59.0872 48.827 61.9673C47.7681 66.1825 46.177 78.024 40.7823 81.0044C41.526 78.3304 42.1658 75.7623 41.9062 72.6612C41.6688 69.8239 40.9975 70.2194 40.4319 66.9939L40.1555 65.5493C39.1486 66.5148 38.4531 67.2669 37.3812 68.1025C39.4434 69.213 42.5886 69.601 39.8514 78.8039C36.8583 88.8721 24.7134 92.6881 16.0919 93.1208C12.5406 93.299 11.1071 92.9518 9.81451 92.4504C9.68099 92.3984 9.47887 92.287 9.37131 92.2406C9.26375 92.1942 9.07086 92.105 8.93178 92.0178C10.9049 88.6865 12.9319 89.1878 11.9935 83.2847C10.9235 76.5441 6.55248 72.8748 6.14264 53.7392C4.27334 52.055 2.21117 50.9687 1.32473 47.7321C7.26275 48.2651 5.4231 52.3558 8.49596 53.808C9.67726 52.7309 12.689 43.0025 27.8214 41.9311C33.1679 41.5523 33.4664 42.8558 37.4313 43.5373C38.047 40.1373 36.3353 35.2258 38.5458 32.9919L38.544 32.99ZM82.4839 39.8105C79.5519 41.5579 77.1318 42.5049 75.1884 45.4834C69.6305 54.0029 75.2792 63.5605 74.0942 66.708C71.7687 72.8878 65.8251 58.7882 63.0731 54.3743C60.7643 50.6679 59.6275 50.3689 63.2845 46.4824C67.2049 42.3155 74.4911 39.1476 82.4839 39.8105ZM38.8518 152.095C45.5409 154.297 39.64 140.329 52.5341 143.053C66.6356 146.032 77.3599 138.004 84.0342 126.579C93.1081 111.044 87.7413 93.3158 80.9428 78.2041C79.6168 75.2572 79.1718 72.2044 77.844 68.9586C75.4443 63.0907 72.0117 56.2925 74.8249 48.6494C76.9538 42.867 82.6767 39.2757 90 42.1168C89.2879 38.4958 86.0611 38.6685 82.3949 38.5831C67.7334 38.2433 65.4839 44.2337 59.5051 48.6884C57.0683 47.2307 55.1972 45.5428 52.013 44.3228C49.0959 43.2049 45.0996 42.971 42.889 41.6247C41.3869 38.4717 43.5288 32.1284 39.9255 31.1387C35.4878 29.9206 36.6209 37.0548 35.4674 39.7065C29.841 40.6647 21.85 38.8263 13.3955 45.8306C11.5985 47.3199 10.9903 48.7089 9.08386 50.0495C7.40741 49.0394 5.4398 43.593 0.531009 47.0506C-1.87053 50.2371 4.63683 52.2073 4.90758 56.7605C6.202 78.5273 14.5323 83.4908 8.46445 90.7402C5.46947 90.2853 7.2646 89.3977 3.77448 89.0263C2.86393 92.4857 3.90618 92.6435 7.18859 93.9248C9.56231 94.8514 11.8359 95.3788 14.3895 95.4011C20.3609 95.4549 24.2219 93.1579 29.0732 91.7559L27.1779 93.7317C26.54 94.2535 25.839 94.6954 25.1528 95.1745C15.1665 102.144 9.58641 112.8 10.1891 126.09C10.6082 135.353 15.2481 138.463 20.3869 142.335C24.9971 145.807 24.7003 144.303 29.216 146.425C33.5795 148.477 30.6625 152.646 36.0312 152.462C36.5912 150.314 36.0163 148.078 37.8133 147.378C38.5533 149.575 37.7818 149.985 38.8537 152.091L38.8518 152.095Z" fill="white"/>
<path fill-rule="evenodd" clip-rule="evenodd" d="M27.7804 111.206C40.2981 110.909 38.0653 116.881 41.9264 117.924C47.6882 117.961 49.2126 113.057 55.2878 113.837C54.5349 117.287 49.6669 124.121 47.8588 126.126C42.0747 132.533 26.0186 139.494 23.2128 127.146C21.4882 119.556 25.8851 116.142 27.7804 111.208V111.206ZM47.8755 111.893C49.6576 112.199 48.2093 111.523 49.2367 112.537C48.1463 114.541 49.0883 113.356 46.4698 114.827L46.11 113.906C43.931 114.565 44.8805 114.381 44.3705 113.962C42.4827 112.411 44.8601 114.651 42.3844 114.298C42.3102 112.48 42.5179 111.141 42.8258 109.271C43.2838 106.482 42.8387 106.571 44.8582 106.233C46.149 108.512 44.6561 109.763 44.4855 112.389C45.5741 110.441 45.4164 110.797 46.0154 108.391C46.5384 106.291 46.021 106.01 48.3947 106.439C48.8751 107.221 48.8083 106.437 48.9548 107.863C49.105 109.308 48.1666 110.435 47.8736 111.889L47.8755 111.893ZM49.5946 109.73C50.1287 106.879 49.4796 106.213 51.9832 105.644C52.801 108.402 52.3466 109.395 49.5946 109.73ZM41.3682 115.573C39.6583 114.745 39.4117 114.552 38.9851 112.539C40.1164 111.039 38.9425 111.874 40.8545 111.08C40.5781 108.597 39.3115 107.241 39.9903 104.918C42.581 105.784 42.3491 106.04 42.0339 109.074C41.8076 111.276 41.4794 113.314 41.37 115.575L41.3682 115.573ZM38.5994 107.262C37.7389 106.5 37.3513 108.578 37.6703 105.542C37.8131 104.185 38.1618 104.636 38.9944 104.036L39.0723 105.587C39.0167 105.934 38.6884 106.889 38.6013 107.262H38.5994ZM39.7399 101.97C42.1396 100.324 51.8367 98.4656 51.7847 104.311C49.9525 104.957 46.6479 105.16 44.2927 104.865C41.7873 104.553 40.2332 103.899 39.7399 101.97ZM35.4746 106.733C33.0397 105.949 33.3067 105.773 34.9072 103.804C35.9438 102.53 36.3592 102.09 38.0505 101.156C36.7894 104.021 36.578 105.496 35.4746 106.733ZM38.2489 101.045C38.8832 100.124 38.4455 100.675 39.2002 99.8973L41.2105 98.33C56.0482 89.2441 61.8267 108.692 53.9489 108.718C52.8937 104.042 53.8339 100.911 49.6317 99.5315C45.7651 98.2613 41.3366 99.6187 38.2508 101.047L38.2489 101.045ZM50.7221 112.092C51.5807 110.055 50.1973 111.21 53.8414 110.35C64.9163 107.735 69.1241 98.9874 67.7221 96.8259C65.9566 98.9985 66.3739 102.064 61.1888 106.034L58.8967 107.251C58.854 107.256 58.6407 107.29 58.6111 107.193C57.2109 102.742 59.3195 101.225 56.076 97.7618C53.7282 95.255 50.4922 94.5456 46.8685 95.1361C37.9837 96.5827 33.6739 103.908 31.9567 105.117C30.6771 104.4 29.4105 103.284 28.5444 101.862C28.1976 101.292 27.8175 100.263 27.5097 99.4033L26.6807 97.3867C25.1211 99.9456 28.1995 104.384 30.1634 106.111C33.418 108.972 36.3889 108.879 37.4366 109.351C39.2299 110.159 38.4733 109.221 39.1224 111.018C32.5371 112.825 26.6418 107.891 21.7867 106.049C22.6342 109.119 24.2829 109.091 26.5657 110.303C26.0391 116.008 18.6007 120.195 23.2221 130.065C28.1086 140.501 45.4369 133.593 53.7913 119.724C58.0844 112.599 55.1451 113.709 64.4564 111.041C69.0221 109.732 67.7369 110.069 68.2321 109.015C66.563 108.148 56.3134 113.672 50.7258 112.094L50.7221 112.092Z" fill="white"/>
<path fill-rule="evenodd" clip-rule="evenodd" d="M14.1076 61.2069C13.5086 63.7509 14.1521 66.3301 17.6161 65.3051C18.4895 61.8048 16.9356 60.687 14.1076 61.2069Z" fill="white"/>
<path fill-rule="evenodd" clip-rule="evenodd" d="M30.026 59.511C30.497 56.2428 30.8679 55.4499 27.8544 55.0674C26.994 57.448 26.688 59.7895 30.026 59.511Z" fill="white"/>
<path fill-rule="evenodd" clip-rule="evenodd" d="M44.1553 102.545C44.2146 102.59 45.7112 104.526 47.1948 103.162C47.5212 102.551 48.007 101.862 46.6069 101.552C45.5369 101.314 44.6949 101.906 44.1553 102.545Z" fill="white"/>
<path fill-rule="evenodd" clip-rule="evenodd" d="M34.4629 89.037C37.1018 91.3192 35.8037 89.323 36.169 89.037C35.5348 88.6192 36.2395 87.5998 34.4629 89.037Z" fill="white"/>
<path fill-rule="evenodd" clip-rule="evenodd" d="M46.042 113.924L47.8075 111.911C47.0193 112.396 47.4626 111.759 46.7004 112.702C46.0791 113.473 46.4926 112.981 46.042 113.924Z" fill="white"/>
</svg>
